<svg
        data-name="Layer 1"
        xmlns="http://www.w3.org/2000/svg"
        viewBox="225 225 250 250"
      >
        <circle cx="341.6163" cy="349.43208" r="99.43208" fill="#ff6584" />
        <path
          d="M910.58107,100.34c-2.86005-9.58-10.94-15.83-20.7-17.2-.1-.01-.21.00995-.31,0a2.8578,2.8578,0,0,0-.42-.1,61.7049,61.7049,0,0,0-39.69,8.64,63.74154,63.74154,0,0,1-8.5,4.46,82.38,82.38,0,0,1-29.75,6.43995c-.08,0-.16.01-.24.01a24.424,24.424,0,0,0-21.85,17.61,2.8588,2.8588,0,0,0,1.28,3.12995,12.60546,12.60546,0,0,0,5.16,2.63q6.165,1.305,12.36,2.39,12.105,2.115,24.33,3.42,8.1.87,16.23,1.36c11.18.7,22.41.87,33.61005.52,5.54-.17,10.87994-.35,15.96-2.8a23.67579,23.67579,0,0,0,9.15-7.99A26.955,26.955,0,0,0,910.58107,100.34Z"
          transform="translate(-438.32399 214.31291)"
          fill="#f2f2f2"
        />
      </svg>
    
    